#N canvas 559 34 561 551 10;
#X declare -lib oscx;
#X obj 150 397 *~;
#X floatatom 150 312 0 0 0 0 - - -;
#X floatatom 45 341 0 0 0 0 - - -;
#X obj 60 417 +~;
#X floatatom 172 367 0 0 0 0 - - -;
#X text 57 304 carrier;
#X text 56 322 frequency;
#X text 135 288 frequency;
#X text 136 271 modulation;
#X obj 61 440 osc~;
#X text 215 359 modulation;
#X obj 150 337 osc~;
#X obj 58 499 output~;
#X text 128 515 <-- Hit "dsp" and slide up volume to listen;
#X obj 69 54 dumpOSC 12000;
#X obj 420 153 import oscx;
#X obj 69 77 OSCroute /wek;
#X obj 69 99 OSCroute /outputs;
#X obj 69 246 unpack f f f;
#X text 89 395 comment;
#X text 223 373 index;
#X text 158 53 Reciving on port 12000;
#X msg 69 190 300 100 200;
#X msg 155 190 200 50 100;
#X floatatom 69 144 5 0 0 0 - - -;
#X obj 252 474 vline~;
#X msg 241 436 1 500 \, 0 500 500;
#X obj 103 473 *~;
#X obj 70 165 select 1 2 3;
#X obj 242 401 bng 15 250 50 0 empty empty empty 17 7 0 10 -262144
-1 -1;
#X msg 239 191 150 20 50;
#X obj 68 119 change;
#X text 65 11 Run Wekinator with 1 classifier output;
#X connect 0 0 3 1;
#X connect 1 0 11 0;
#X connect 2 0 3 0;
#X connect 3 0 9 0;
#X connect 4 0 0 1;
#X connect 9 0 27 0;
#X connect 11 0 0 0;
#X connect 14 0 16 0;
#X connect 16 0 17 0;
#X connect 17 0 31 0;
#X connect 18 0 2 0;
#X connect 18 1 1 0;
#X connect 18 2 4 0;
#X connect 22 0 18 0;
#X connect 23 0 18 0;
#X connect 24 0 28 0;
#X connect 24 0 29 0;
#X connect 25 0 27 1;
#X connect 26 0 25 0;
#X connect 27 0 12 0;
#X connect 27 0 12 1;
#X connect 28 0 22 0;
#X connect 28 1 23 0;
#X connect 28 2 30 0;
#X connect 29 0 26 0;
#X connect 30 0 18 0;
#X connect 31 0 24 0;
