#N canvas 68 62 619 354 10;
#X declare -lib mrpeach;
#X msg -185 112 connect localhost 6448;
#X obj -102 260 packOSC;
#X obj -102 293 udpsend;
#X obj -185 83 loadbang;
#X obj 7 25 vsl 15 128 0 127 0 0 empty empty empty 0 -9 0 10 -262144
-1 -1 0 1;
#X text 83 51 Use these sliders to change input values.;
#X obj 189 105 import mrpeach;
#X obj 26 200 pack f;
#X msg -100 228 sendtyped /wek/inputs f \$1;
#X obj -48 22 bng 15 250 50 0 empty empty empty 17 7 0 10 -262144 -1
-1;
#X text -229 -8 This patch sends 1 input to wekinator on port 6448
\, using message /wek/inputs;
#X connect 0 0 2 0;
#X connect 1 0 2 0;
#X connect 3 0 0 0;
#X connect 4 0 7 0;
#X connect 7 0 8 0;
#X connect 8 0 1 0;
#X connect 9 0 4 0;
