#N canvas 701 71 450 300 10;
#X declare -lib mrpeach;
#X floatatom 31 158 5 0 0 0 - - -;
#X obj 31 179 select 1 2 3;
#X obj 31 136 change;
#X text 137 11 Receiving on port 12000;
#X obj 319 13 import mrpeach;
#X obj 31 11 udpreceive 12000;
#X obj 31 33 unpackOSC;
#X text 93 34 parses OSC message;
#X obj 31 62 routeOSC /wek;
#X obj 31 84 routeOSC /outputs;
#X text 145 61 Route the OSC messages from Wekinator;
#X obj 31 111 unpack f;
#X text 89 113 add f's based on the amount of outputs in model (eg
f f f);
#X text 74 157 your output class!;
#X text 118 179 bangs for the classes;
#X text 74 136 only output on change;
#X connect 0 0 1 0;
#X connect 2 0 0 0;
#X connect 5 0 6 0;
#X connect 6 0 8 0;
#X connect 8 0 9 0;
#X connect 9 0 11 0;
#X connect 11 0 2 0;
