#N canvas 627 315 629 384 10;
#X declare -lib mrpeach;
#X obj 332 102 import mrpeach;
#X obj 105 102 udpreceive 7110;
#X obj 105 129 unpackOSC;
#X obj 110 171 routeOSC /hand0 /hand1;
#X floatatom 20 269 5 0 0 0 - - -;
#X floatatom 58 269 5 0 0 0 - - -;
#X obj 110 203 unpack s f f f f f;
#X obj 383 206 unpack s f f f f f;
#X floatatom 96 269 5 0 0 0 - - -;
#X floatatom 265 279 5 0 0 0 - - -;
#X floatatom 303 279 5 0 0 0 - - -;
#X floatatom 341 279 5 0 0 0 - - -;
#X text 110 26 Receives data from ManosOSC;
#X connect 1 0 2 0;
#X connect 2 0 3 0;
#X connect 3 0 6 0;
#X connect 3 1 7 0;
#X connect 6 3 4 0;
#X connect 6 4 5 0;
#X connect 6 5 8 0;
#X connect 7 3 9 0;
#X connect 7 4 10 0;
#X connect 7 5 11 0;
